<svg width="90" height="90" viewBox="0 0 90 90" fill="none" xmlns="http://www.w3.org/2000/svg">
<circle cx="45" cy="45" r="45" fill="#DEE8FC"/>
<path d="M68 45.5C68 57.9256 57.9256 68 45.5 68C33.0744 68 23 57.9256 23 45.5H26.75C26.75 55.8387 35.1613 64.25 45.5 64.25C55.8387 64.25 64.25 55.8387 64.25 45.5C64.25 35.1613 55.8387 26.75 45.5 26.75C40.2931 26.75 35.5869 28.8894 32.1894 32.3319L36.0538 36.1962L23 38.735L25.4469 25.5856L29.5325 29.6731C33.605 25.5556 39.2488 23 45.5 23C57.9256 23 68 33.0744 68 45.5ZM43.625 34.25V49.25H56.75V45.5H47.375V34.25H43.625Z" fill="#2563EB"/>
</svg>
