<svg width="90" height="90" viewBox="0 0 90 90" fill="none" xmlns="http://www.w3.org/2000/svg">
<circle cx="45" cy="45" r="45" fill="#DEE8FC"/>
<path d="M55.75 57.02C62.9562 57.02 67 48.62 67 40.535C67 30.14 59.8975 23 48.1809 23C32.9389 23 22 34.7075 22 49.67C22 60.3275 29.4136 67.1 40.6117 67.1C44.1889 67.1 47.6624 66.47 50.773 65.1575L50.1509 61.9025C47.5069 63.1625 44.3963 63.6875 41.5449 63.6875C31.7984 63.6875 25.8882 58.595 25.9401 49.25C25.9401 36.3875 35.0645 26.36 47.6106 26.36C57.5127 26.36 63.1636 31.6625 63.1636 40.7975C63.1636 46.31 60.9343 53.765 56.4758 53.765C53.8318 53.765 53.417 51.77 53.8836 48.7775L56.4758 33.605H52.3802L51.8099 36.86C50.6694 34.34 48.4401 33.08 45.174 33.08C37.6048 33.08 32.4205 40.1675 32.4205 47.99C32.4205 53.45 35.5311 57.02 40.871 57.02C44.5 57.02 48.0253 55.1825 50.1509 52.1375C50.4101 55.0775 52.2247 57.02 55.75 57.02ZM50.773 43.685C50.462 49.0925 46.8329 53.2925 42.2707 53.2925C38.6417 53.2925 36.8272 50.825 36.8272 47.255C36.8272 42.0575 39.9896 36.755 45.174 36.755C49.2177 36.755 51.0841 39.8525 50.773 43.685Z" fill="#2563EB"/>
</svg>
