<svg width="90" height="90" viewBox="0 0 90 90" fill="none" xmlns="http://www.w3.org/2000/svg">
<circle cx="45" cy="45" r="45" fill="#514618"/>
<path d="M66.9025 22.0788C66.1281 22.0263 65.3706 22 64.6262 22C48.501 22 39.319 34.2947 35.9795 44.1875L44.8428 53.0509C55.0205 49.4058 67 40.563 67 24.6101C67 23.785 66.9681 22.9413 66.9025 22.0788ZM45.7578 48.6632L40.3521 43.2575C42.6415 37.8967 49.1479 26.4851 63.2256 25.782C62.7549 36.6104 55.6486 44.405 45.7578 48.6632ZM56.0161 51.5471C54.9905 52.2465 53.9723 52.8784 52.9635 53.4427C52.6129 55.1134 51.7223 56.8966 50.4304 58.4154C50.4266 57.3354 50.1266 56.2478 49.5997 55.1565C48.6716 55.5784 47.7885 55.9403 46.9485 56.2591C48.186 59.4635 46.926 61.8298 45.2328 64.048C47.6628 63.8643 50.2129 62.6755 52.2229 60.6636C54.3886 58.4979 55.9111 55.3703 56.0161 51.5471ZM33.8533 39.4174C32.7676 38.8923 31.682 38.5961 30.6057 38.5905C32.1114 37.3135 33.8758 36.4285 35.5295 36.0685C36.1183 35.0335 36.7802 34.0116 37.4777 33.0066C33.6545 33.1097 30.5251 34.6322 28.3576 36.7998C26.3494 38.808 25.1588 41.3618 24.975 43.79C27.195 42.0949 29.5613 40.8349 32.7658 42.0762C33.0901 41.193 33.452 40.3061 33.8533 39.4174ZM48.3622 40.6605C47.6291 39.9274 47.6291 38.7423 48.3622 38.0092C49.0954 37.276 50.2804 37.276 51.0135 38.0092C51.7467 38.7442 51.7467 39.9292 51.0135 40.6624C50.2804 41.3955 49.0935 41.3937 48.3622 40.6605ZM57.6417 31.3771C56.1792 29.9146 53.8036 29.9146 52.3392 31.3771C50.8748 32.8415 50.8748 35.2191 52.3392 36.6817C53.8036 38.1461 56.1792 38.1461 57.6436 36.6817C59.1061 35.2191 59.1061 32.8434 57.6417 31.3771ZM54.0642 34.9604C53.5523 34.4485 53.5523 33.6141 54.0642 33.1041C54.5723 32.5922 55.4086 32.5922 55.9205 33.1041C56.4305 33.6141 56.4286 34.4485 55.9205 34.9604C55.4067 35.4704 54.5742 35.4704 54.0642 34.9604ZM38.6252 51.5302L40.5246 53.4277C38.7583 55.2165 36.9489 57.3335 36.2364 60.2473L33.6301 59.6098C34.5058 56.0247 36.6433 53.5346 38.6252 51.5302ZM35.5614 48.4682L37.4552 50.362C35.357 52.4302 32.9308 54.4928 29.3795 55.3609L28.7419 52.7546C31.6539 52.0402 33.7858 50.2233 35.5614 48.4682ZM40.7102 60.5548C41.0965 64.3593 38.9365 66.6769 36.0602 66.9694C34.3689 67.1419 32.8708 66.585 31.6426 65.3193C28.6894 66.3619 25.8788 65.2312 24.3975 63.1218C23.2312 61.4661 22.9725 59.3679 23.6812 57.3579C22.4137 56.1278 21.8568 54.6428 22.0312 52.9402C22.32 50.0883 24.5831 47.8888 28.5638 48.2995L28.9576 50.5645C27.6151 50.6902 26.3719 50.7595 25.5656 51.5639C24.2119 52.9196 24.6206 55.7434 27.1613 56.4935C25.4756 58.1885 25.6369 60.6223 26.9044 61.9574C28.2301 63.358 30.7613 63.5755 32.5051 61.8392C33.2851 64.483 36.1464 64.7212 37.4346 63.4349C38.2296 62.6399 38.3065 61.4192 38.4302 60.0936L40.7102 60.5548Z" fill="#e4b700"/>
</svg>
